<svg xmlns="http://www.w3.org/2000/svg" width="648" height="120" viewBox="0 0 162 30"><g><g><path fill="red" d="M129.682 1.223l-12.253 11.823a2.443 2.443 0 0 0 0 3.911l12.253 11.824c.081.08.081.08.245.08.081 0 .164-.08.164-.243 0-.082-.082-.163-.082-.244-6.644-7.708-6.644-19.119 0-26.827a.299.299 0 0 0 .082-.244c0-.163-.082-.244-.164-.244-.082.081-.164.081-.245.163"/></g><g><path fill="#005baa" d="M139.077.244c-4.82 0-6.7 6.765-6.7 14.84s1.88 14.758 6.7 14.758c2.854 0 5.31-1.713 5.31-3.099a1.046 1.046 0 0 0-.327-.815 5.152 5.152 0 0 1-1.879-3.75 3.855 3.855 0 0 1 3.676-3.832c2.45 0 3.84 1.876 3.84 4.403a10.347 10.347 0 0 1-2.043 5.87.285.285 0 0 1-.082.163c0 .163.082.245.164.245.083 0 .082 0 .245-.082l12.253-11.823c.604-.472.964-1.19.98-1.957a2.432 2.432 0 0 0-.98-1.956L147.98 1.386a.3.3 0 0 0-.245-.082c-.081 0-.164.082-.164.244a.283.283 0 0 0 .082.163 10.348 10.348 0 0 1 2.042 5.871c0 2.446-1.389 4.403-3.84 4.403a3.855 3.855 0 0 1-3.675-3.832 5.153 5.153 0 0 1 1.879-3.75c.21-.22.328-.512.326-.816 0-1.63-2.369-3.343-5.31-3.343"/></g><g><path fill="#005baa" d="M16.789 18.59a3.207 3.207 0 0 1 1.47-2.934 6.329 6.329 0 0 1 3.675-1.057c.871-.02 1.736.146 2.537.49v-1.387c0-1.386-.49-2.201-2.123-2.201-.499.02-.992.102-1.47.244.072.209.1.431.08.652a2 2 0 0 1-.407 1.223 1.435 1.435 0 0 1-1.225.49 1.568 1.568 0 0 1-1.552-1.632c0-1.712 2.042-2.854 4.901-2.854 2.206 0 3.595.49 4.335 1.467.653.815.653 2.12.74 3.832v4.566c0 .897.49 1.142 1.551 1.305h.164v.163a1.824 1.824 0 0 1-1.878 1.797h-.246a2.618 2.618 0 0 1-2.287-1.386 5.698 5.698 0 0 1-3.594 1.386c-2.696-.081-4.651-1.797-4.651-4.159zm76.46 3.42a4.252 4.252 0 0 1-.49-1.222c-.12.201-.289.37-.491.49a4.44 4.44 0 0 1-3.186 1.222 4.016 4.016 0 0 1-3.186-1.386c-1.144-1.304-1.144-3.017-1.144-5.463v-2.283c0-.896-.327-1.223-1.144-1.304H83.2l-.081-.082a1.032 1.032 0 0 1-.082-.489c0-1.142 1.47-1.712 2.288-1.875a3.06 3.06 0 0 1 .817-.082 2.03 2.03 0 0 1 1.47.57c.316.453.46 1.002.409 1.55v3.996a8.539 8.539 0 0 0 .408 3.261c.315.658.986 1.07 1.715 1.057a2.114 2.114 0 0 0 1.961-1.057 5.202 5.202 0 0 0 .49-2.283v-3.18c-.08-.896-.326-1.222-1.225-1.304h-.408l-.081-.081a1.163 1.163 0 0 1-.164-.49c.082-1.141 1.47-1.712 2.288-1.875.267-.067.542-.095.817-.081a2.028 2.028 0 0 1 1.47.57c.316.452.46 1.001.408 1.55v4.651c0 1.386-.081 2.202-.081 2.446.081.979.327 1.386 1.225 1.386h.327l.081.081c.067.154.095.323.082.49 0 1.057-1.47 1.55-2.288 1.712-.241.064-.49.09-.74.082a1.112 1.112 0 0 1-1.057-.571zm-43.454-5.708a7.063 7.063 0 0 1 1.797-4.892 6.093 6.093 0 0 1 4.651-1.875 5.073 5.073 0 0 1 3.84 1.55 4.916 4.916 0 0 1 1.225 3.26 3.415 3.415 0 0 1-.408 1.798v.081h-7.84a3.753 3.753 0 0 0 4.084 3.832 4.176 4.176 0 0 0 3.186-1.386l.082-.08.08.08c.336.244.522.644.491 1.057 0 1.305-1.551 3.017-4.983 3.017a6.36 6.36 0 0 1-6.208-6.442zm26.615 6.28a6.368 6.368 0 0 1-4.493-1.796 6.571 6.571 0 0 1-1.879-4.73 6.394 6.394 0 0 1 6.535-6.523 6.622 6.622 0 0 1 4.652 1.797 6.518 6.518 0 0 1 1.797 4.73 6.253 6.253 0 0 1-1.879 4.729 6.824 6.824 0 0 1-4.738 1.797zm23.042-.322c-.49-.163-.899-.408-.899-.896.027-.198.083-.39.164-.571l.082-.082h.081c.295-.085.572-.223.817-.408.327-.244.408-.652.408-1.63v-5.22c0-.896-.164-1.222-.898-1.222a1.598 1.598 0 0 0-.572.08h-.082v-.085a1.386 1.386 0 0 1-.08-.57c0-1.057 1.143-1.55 1.878-1.797.29-.094.593-.149.898-.163a1.93 1.93 0 0 1 1.879 1.712 3.41 3.41 0 0 1 2.854-1.875 1.948 1.948 0 0 1 2.042 1.957 1.726 1.726 0 0 1-1.634 1.797 1.585 1.585 0 0 1-1.634-1.305c-.572.163-1.39.98-1.471 3.507v3.18c0 1.056.164 1.385.49 1.63.358.195.744.333 1.144.408h.082v.082c.081.181.137.373.164.57a.874.874 0 0 1-.818.815 7.712 7.712 0 0 1-2.287.245c-.875.05-1.753-.004-2.614-.163zm-36.261-.007c-.572-.163-.899-.408-.899-.897a2.07 2.07 0 0 1 .164-.57l.081-.082c.322-.082.626-.22.899-.408.245-.244.408-.652.408-1.63v-6.85l-1.879-.081-.081-.082a1.797 1.797 0 0 1-.081-.652 1.116 1.116 0 0 1 1.143-1.142h.818v-.733a6.061 6.061 0 0 1 .817-3.588 4.147 4.147 0 0 1 3.839-1.875c2.369 0 4.411 1.142 4.411 2.935a1.642 1.642 0 0 1-1.634 1.713 1.691 1.691 0 0 1-1.633-1.631 1.641 1.641 0 0 1 .245-.898 1.728 1.728 0 0 0-1.148-.32 1.447 1.447 0 0 0-1.389.651 3.71 3.71 0 0 0-.327 1.797v1.957h3.186l.082.081c.062.212.09.432.081.653a1.176 1.176 0 0 1-1.057 1.223h-.74a7.481 7.481 0 0 1-1.389-.082v6.849c0 1.057.164 1.386.49 1.631.246.244 1.058.326 1.307.408h.082v.081c.09.15.146.316.163.49 0 .49-.408.733-.98.896a9.678 9.678 0 0 1-2.536.244 7.566 7.566 0 0 1-2.45-.081zm-21.815.001c-.49-.162-.898-.407-.898-.896a2.07 2.07 0 0 1 .164-.57l.081-.082c.301-.068.582-.208.817-.408.327-.244.49-.652.49-1.631v-5.219c0-.896-.244-1.223-.898-1.223a1.59 1.59 0 0 0-.572.082h-.081l-.081-.082a1.586 1.586 0 0 1-.082-.57c0-1.057 1.144-1.55 1.879-1.797.265-.086.539-.14.817-.163a1.93 1.93 0 0 1 1.878 1.712 3.518 3.518 0 0 1 2.854-1.875 1.946 1.946 0 0 1 2.051 1.955 1.74 1.74 0 0 1-1.716 1.796 1.507 1.507 0 0 1-1.551-1.304c-.572.163-1.47.979-1.47 3.506v3.18c0 1.057.163 1.386.407 1.63.352.208.74.347 1.144.41l.081-.001.082.081c.082.182.137.374.164.571a1.023 1.023 0 0 1-.817.897 7.703 7.703 0 0 1-2.288.244 14.26 14.26 0 0 1-2.45-.244zm-10.291 0c-.572-.162-.899-.407-.899-.896 0-.163.081-.326.081-.57l.082-.082h.081c.289-.102.563-.239.817-.408.327-.244.408-.652.408-1.63v-5.22c0-.896-.245-1.223-.98-1.223a1.584 1.584 0 0 0-.571.082h-.076l-.082-.082a1.385 1.385 0 0 1-.081-.57c.081-1.058 1.144-1.55 1.96-1.798a3.6 3.6 0 0 1 .818-.162 1.93 1.93 0 0 1 1.878 1.712 3.517 3.517 0 0 1 2.854-1.875 1.946 1.946 0 0 1 2.043 1.956 1.74 1.74 0 0 1-1.716 1.798 1.652 1.652 0 0 1-1.634-1.305c-.572.163-1.39.979-1.39 3.507v3.179c0 1.057.082 1.386.409 1.631.357.195.743.333 1.144.408h.081v.082c.082.18.137.373.164.57 0 .408-.245.734-.817.896a7.694 7.694 0 0 1-2.288.245 12.931 12.931 0 0 1-2.287-.245zm42.477-6.61c0 3.425 1.47 4.893 3.022 4.893 1.634 0 2.854-1.468 2.854-4.403a5.991 5.991 0 0 0-.898-3.506 2.37 2.37 0 0 0-2.124-1.223c-1.716 0-2.777 1.631-2.854 4.24zm-51.057.739c-1.389 0-2.287.652-2.369 1.956a1.993 1.993 0 0 0 2.124 2.038 3.098 3.098 0 0 0 2.205-1.141v-1.797a.805.805 0 0 0-.49-.734 3.273 3.273 0 0 0-1.47-.327zm35.208-2.038c.245 0 .326-.082.326-.163v-.49a2.252 2.252 0 0 0-2.369-2.283c-1.797 0-2.537 1.467-2.614 2.936zM3.072 20.298a9.424 9.424 0 0 1-2.537-6.765 9.832 9.832 0 0 1 2.45-6.686A8.012 8.012 0 0 1 8.78 4.235c3.92 0 6.699 2.773 6.699 5.137a2.171 2.171 0 0 1-1.879 2.284 2.22 2.22 0 0 1-1.389-.49A2.021 2.021 0 0 1 11.64 9.7a2.113 2.113 0 0 1 .654-1.55 3.297 3.297 0 0 0-3.1-1.63 3.954 3.954 0 0 0-3.267 1.956 9.358 9.358 0 0 0-1.307 5.137 9.064 9.064 0 0 0 1.307 5.055 3.98 3.98 0 0 0 3.349 1.956 3.39 3.39 0 0 0 3.1-1.631 2.248 2.248 0 0 1-.654-1.468 2.022 2.022 0 0 1 .572-1.467c.38-.341.88-.517 1.389-.49a2.038 2.038 0 0 1 1.878 2.202c0 2.365-2.777 5.055-6.699 5.137a8.866 8.866 0 0 1-5.8-2.61z"/></g></g></svg>